<svg width="201" height="221" viewBox="0 0 201 221" fill="none" xmlns="http://www.w3.org/2000/svg">
<path d="M0.5 184.159H110H201" stroke="#26C035" stroke-width="4"/>
<path d="M48.5002 159.659C72.0002 178.659 101.167 181.326 116 182.159H78C65.6667 179.659 37.2 166.359 22 133.159C14 117.659 3.3 78.1591 26.5 44.1591C55.5 1.65906 86.5 1.65904 94.5 1.15904C102.5 0.659043 137.5 -0.840958 168.5 36.659C193.3 66.659 183 104.159 175 119.659C168.5 131.159 148.8 155.259 120 155.659C111.833 156.159 87.8998 152.659 79.5 144.659C70.5 137.492 52.7 119.459 47.5 106.659C47.5 106.659 52.6 104.259 59 106.659C65.4 109.059 77.3333 117.992 82.5 122.159C85.9999 123.992 94.9998 126.959 103 124.159C99.6666 122.159 93 117.159 93 113.159V105.659C93 104.659 98 107.159 101 108.159C104 109.159 111.5 113.159 124 113.159C128.5 113.326 138.8 116.359 144 127.159L142 128.659C140.5 122.659 127 116.659 126.5 116.659C126 116.659 118 115.659 113 115.659C109 115.659 100.334 111.326 96.5002 109.159C96.5002 118.359 109.834 123.659 116.5 125.159C112.5 131.159 98.5002 130.326 92.0002 129.159C82.0002 126.359 77.5 123.159 74.5002 120.659L62 111.659C61.2 110.459 54.8335 107.992 51.5002 107.659C79 151.659 119.5 156.159 140.5 144.159C161.5 132.159 169 114.159 171.5 110.159C174 106.159 189 63.659 152 29.6589C121.872 1.97289 77.1046 3.8554 48.5002 29.1591C22.4999 52.159 19.5001 82.6589 20.0001 98.1589C20.5324 114.659 27.8637 142.974 48.5002 159.659Z" fill="#26C035"/>
<path d="M86 96.159V75.159H66.5V60.159H87.5V38.159H105V60.159H125V75.159H104V96.159H86Z" fill="#26C035"/>
<path d="M198.5 170.159L196 172.659C197 173.659 198.9 175.959 198.5 177.159C198.1 178.359 197.667 178.659 197.5 178.659H194.5C193.3 178.659 193 174.992 193 173.159L192.5 172.659H191.5V176.659C191.5 177.159 190.5 178.659 190 178.659H183C182.6 178.259 180.833 174.492 180 172.659H179.5C179.5 173.492 179.4 175.459 179 176.659C178.6 177.859 177.167 178.492 176.5 178.659H170.5V171.659C170.5 170.659 169 165.159 165.5 165.159C162.7 165.159 161 168.159 160.5 169.659V174.659C160.5 175.859 161.833 176.492 162.5 176.659L166.5 177.159V177.659V178.659H151.5C150.3 177.859 149.333 174.659 149 173.159V157.659L147 153.659L144 157.659L147 161.159V176.659L150.5 181.659H200V175.659L198.5 170.159Z" fill="#26C035"/>
<path d="M165 154.659L162 157.659L165 160.159L167.5 157.659L165 154.659Z" fill="#26C035"/>
<path d="M185.5 164.159L188 160.659L191 162.659L188.5 166.159L185.5 164.159Z" fill="#26C035"/>
<path d="M197.5 160.659L194 158.659H193.5L191.5 161.659L195.5 164.159L197.5 160.659Z" fill="#26C035"/>
<path d="M186 157.159L190 158.659H190.5L192 156.159L188.5 154.159L186 157.159Z" fill="#26C035"/>
<path d="M48.5002 159.659C72.0002 178.659 101.167 181.326 116 182.159H78C65.6667 179.659 37.2 166.359 22 133.159C14 117.659 3.3 78.1591 26.5 44.1591C55.5 1.65906 86.5 1.65904 94.5 1.15904C102.5 0.659043 137.5 -0.840958 168.5 36.659C193.3 66.659 183 104.159 175 119.659C168.5 131.159 148.8 155.259 120 155.659C111.833 156.159 87.8998 152.659 79.5 144.659C70.5 137.492 52.7 119.459 47.5 106.659C47.5 106.659 52.6 104.259 59 106.659C65.4 109.059 77.3333 117.992 82.5 122.159C85.9999 123.992 94.9998 126.959 103 124.159C99.6666 122.159 93 117.159 93 113.159V105.659C93 104.659 98 107.159 101 108.159C104 109.159 111.5 113.159 124 113.159C128.5 113.326 138.8 116.359 144 127.159L142 128.659C140.5 122.659 127 116.659 126.5 116.659C126 116.659 118 115.659 113 115.659C109 115.659 100.334 111.326 96.5002 109.159C96.5002 118.359 109.834 123.659 116.5 125.159C112.5 131.159 98.5002 130.326 92.0002 129.159C82.0002 126.359 77.5 123.159 74.5002 120.659L62 111.659C61.2 110.459 54.8335 107.992 51.5002 107.659C79 151.659 119.5 156.159 140.5 144.159C161.5 132.159 169 114.159 171.5 110.159C174 106.159 189 63.659 152 29.6589C121.872 1.97289 77.1046 3.8554 48.5002 29.1591C22.4999 52.159 19.5001 82.6589 20.0001 98.1589C20.5324 114.659 27.8637 142.974 48.5002 159.659Z" stroke="#26C035"/>
<path d="M86 96.159V75.159H66.5V60.159H87.5V38.159H105V60.159H125V75.159H104V96.159H86Z" stroke="#26C035"/>
<path d="M198.5 170.159L196 172.659C197 173.659 198.9 175.959 198.5 177.159C198.1 178.359 197.667 178.659 197.5 178.659H194.5C193.3 178.659 193 174.992 193 173.159L192.5 172.659H191.5V176.659C191.5 177.159 190.5 178.659 190 178.659H183C182.6 178.259 180.833 174.492 180 172.659H179.5C179.5 173.492 179.4 175.459 179 176.659C178.6 177.859 177.167 178.492 176.5 178.659H170.5V171.659C170.5 170.659 169 165.159 165.5 165.159C162.7 165.159 161 168.159 160.5 169.659V174.659C160.5 175.859 161.833 176.492 162.5 176.659L166.5 177.159V177.659V178.659H151.5C150.3 177.859 149.333 174.659 149 173.159V157.659L147 153.659L144 157.659L147 161.159V176.659L150.5 181.659H200V175.659L198.5 170.159Z" stroke="#26C035"/>
<path d="M165 154.659L162 157.659L165 160.159L167.5 157.659L165 154.659Z" stroke="#26C035"/>
<path d="M185.5 164.159L188 160.659L191 162.659L188.5 166.159L185.5 164.159Z" stroke="#26C035"/>
<path d="M197.5 160.659L194 158.659H193.5L191.5 161.659L195.5 164.159L197.5 160.659Z" stroke="#26C035"/>
<path d="M186 157.159L190 158.659H190.5L192 156.159L188.5 154.159L186 157.159Z" stroke="#26C035"/>
<path d="M7.13672 193.253L12.25 207.69L17.3359 193.253H22.7227V213.159H18.6074V207.718L19.0176 198.325L13.6445 213.159H10.8281L5.46875 198.339L5.87891 207.718V213.159H1.77734V193.253H7.13672ZM33.5535 213.432C31.3842 213.432 29.616 212.767 28.2488 211.436C26.8908 210.106 26.2117 208.333 26.2117 206.118V205.735C26.2117 204.25 26.4988 202.923 27.073 201.757C27.6473 200.581 28.4585 199.679 29.5066 199.05C30.5639 198.412 31.7671 198.093 33.116 198.093C35.1395 198.093 36.7299 198.731 37.8875 200.007C39.0542 201.283 39.6375 203.092 39.6375 205.434V207.048H30.2176C30.3452 208.014 30.728 208.789 31.366 209.372C32.0132 209.955 32.8289 210.247 33.8133 210.247C35.3354 210.247 36.5249 209.696 37.3816 208.593L39.323 210.766C38.7306 211.605 37.9285 212.261 36.9168 212.735C35.9051 213.2 34.784 213.432 33.5535 213.432ZM33.1023 201.292C32.3185 201.292 31.6805 201.556 31.1883 202.085C30.7052 202.613 30.3953 203.37 30.2586 204.354H35.7547V204.04C35.7365 203.165 35.4995 202.49 35.0438 202.016C34.588 201.533 33.9409 201.292 33.1023 201.292ZM41.9781 205.653C41.9781 203.347 42.4931 201.511 43.523 200.143C44.5621 198.776 45.9794 198.093 47.775 198.093C49.2151 198.093 50.4046 198.63 51.3434 199.706V192.159H55.3082V213.159H51.7398L51.5484 211.587C50.5641 212.817 49.2971 213.432 47.7477 213.432C46.0068 213.432 44.6077 212.749 43.5504 211.382C42.5022 210.005 41.9781 208.096 41.9781 205.653ZM45.9293 205.94C45.9293 207.326 46.1708 208.388 46.6539 209.126C47.137 209.864 47.8388 210.233 48.7594 210.233C49.9807 210.233 50.8421 209.718 51.3434 208.688V202.85C50.8512 201.821 49.999 201.306 48.7867 201.306C46.8818 201.306 45.9293 202.85 45.9293 205.94ZM63.2406 213.159H59.2758V198.366H63.2406V213.159ZM59.0434 194.538C59.0434 193.946 59.2393 193.458 59.6312 193.075C60.0323 192.692 60.5746 192.501 61.2582 192.501C61.9327 192.501 62.4704 192.692 62.8715 193.075C63.2725 193.458 63.473 193.946 63.473 194.538C63.473 195.14 63.268 195.632 62.8578 196.015C62.4568 196.397 61.9236 196.589 61.2582 196.589C60.5928 196.589 60.0551 196.397 59.6449 196.015C59.2439 195.632 59.0434 195.14 59.0434 194.538ZM73.3605 210.247C74.0897 210.247 74.6822 210.046 75.1379 209.645C75.5936 209.244 75.8306 208.711 75.8488 208.046H79.5539C79.5448 209.048 79.2714 209.969 78.7336 210.807C78.1958 211.637 77.4576 212.284 76.5188 212.749C75.5891 213.205 74.5591 213.432 73.4289 213.432C71.3143 213.432 69.6464 212.763 68.425 211.423C67.2036 210.074 66.593 208.214 66.593 205.845V205.585C66.593 203.306 67.1991 201.488 68.4113 200.13C69.6236 198.772 71.287 198.093 73.4016 198.093C75.2518 198.093 76.7329 198.621 77.8449 199.679C78.966 200.727 79.5357 202.126 79.5539 203.876H75.8488C75.8306 203.11 75.5936 202.49 75.1379 202.016C74.6822 201.533 74.0806 201.292 73.3332 201.292C72.4126 201.292 71.7154 201.629 71.2414 202.304C70.7766 202.969 70.5441 204.054 70.5441 205.557V205.968C70.5441 207.49 70.7766 208.584 71.2414 209.249C71.7063 209.914 72.4126 210.247 73.3605 210.247ZM91.082 213.159C90.8997 212.804 90.7676 212.362 90.6855 211.833C89.7285 212.899 88.4844 213.432 86.9531 213.432C85.5039 213.432 84.3008 213.013 83.3438 212.175C82.3958 211.336 81.9219 210.279 81.9219 209.003C81.9219 207.435 82.5007 206.232 83.6582 205.393C84.8249 204.555 86.5065 204.131 88.7031 204.122H90.5215V203.274C90.5215 202.591 90.3438 202.044 89.9883 201.634C89.6419 201.224 89.0905 201.018 88.334 201.018C87.6686 201.018 87.1445 201.178 86.7617 201.497C86.388 201.816 86.2012 202.253 86.2012 202.809H82.25C82.25 201.953 82.5143 201.16 83.043 200.431C83.5716 199.701 84.319 199.132 85.2852 198.722C86.2513 198.302 87.3359 198.093 88.5391 198.093C90.362 198.093 91.8066 198.553 92.873 199.474C93.9486 200.385 94.4863 201.67 94.4863 203.329V209.741C94.4954 211.145 94.6914 212.207 95.0742 212.927V213.159H91.082ZM87.8145 210.411C88.3978 210.411 88.9355 210.283 89.4277 210.028C89.9199 209.764 90.2845 209.413 90.5215 208.975V206.432H89.0449C87.0671 206.432 86.0143 207.116 85.8867 208.483L85.873 208.716C85.873 209.208 86.0462 209.613 86.3926 209.932C86.7389 210.252 87.2129 210.411 87.8145 210.411ZM102.391 213.159H98.4266V192.159H102.391V213.159ZM129.918 206.528C129.763 208.67 128.97 210.356 127.539 211.587C126.118 212.817 124.24 213.432 121.907 213.432C119.355 213.432 117.345 212.576 115.877 210.862C114.419 209.14 113.69 206.779 113.69 203.78V202.563C113.69 200.649 114.027 198.963 114.702 197.505C115.376 196.046 116.338 194.93 117.586 194.155C118.844 193.371 120.302 192.979 121.961 192.979C124.258 192.979 126.108 193.595 127.512 194.825C128.916 196.056 129.727 197.783 129.946 200.007H125.844C125.744 198.722 125.384 197.792 124.764 197.218C124.153 196.634 123.219 196.343 121.961 196.343C120.594 196.343 119.569 196.835 118.885 197.819C118.211 198.794 117.864 200.312 117.846 202.372V203.876C117.846 206.027 118.17 207.599 118.817 208.593C119.473 209.586 120.503 210.083 121.907 210.083C123.174 210.083 124.117 209.796 124.737 209.222C125.366 208.638 125.726 207.74 125.817 206.528H129.918ZM139.861 213.432C137.691 213.432 135.923 212.767 134.556 211.436C133.198 210.106 132.519 208.333 132.519 206.118V205.735C132.519 204.25 132.806 202.923 133.38 201.757C133.954 200.581 134.765 199.679 135.814 199.05C136.871 198.412 138.074 198.093 139.423 198.093C141.446 198.093 143.037 198.731 144.195 200.007C145.361 201.283 145.945 203.092 145.945 205.434V207.048H136.525C136.652 208.014 137.035 208.789 137.673 209.372C138.32 209.955 139.136 210.247 140.12 210.247C141.642 210.247 142.832 209.696 143.689 208.593L145.63 210.766C145.038 211.605 144.236 212.261 143.224 212.735C142.212 213.2 141.091 213.432 139.861 213.432ZM139.409 201.292C138.626 201.292 137.988 201.556 137.495 202.085C137.012 202.613 136.702 203.37 136.566 204.354H142.062V204.04C142.043 203.165 141.807 202.49 141.351 202.016C140.895 201.533 140.248 201.292 139.409 201.292ZM152.537 198.366L152.66 200.075C153.717 198.753 155.135 198.093 156.912 198.093C158.48 198.093 159.646 198.553 160.412 199.474C161.178 200.394 161.57 201.77 161.588 203.602V213.159H157.637V203.698C157.637 202.86 157.454 202.253 157.09 201.88C156.725 201.497 156.119 201.306 155.271 201.306C154.16 201.306 153.326 201.78 152.77 202.727V213.159H148.818V198.366H152.537ZM170.026 194.729V198.366H172.555V201.265H170.026V208.647C170.026 209.194 170.131 209.586 170.341 209.823C170.55 210.06 170.951 210.179 171.544 210.179C171.981 210.179 172.369 210.147 172.706 210.083V213.077C171.931 213.314 171.134 213.432 170.313 213.432C167.542 213.432 166.13 212.033 166.075 209.235V201.265H163.915V198.366H166.075V194.729H170.026ZM182.265 213.432C180.096 213.432 178.328 212.767 176.961 211.436C175.602 210.106 174.923 208.333 174.923 206.118V205.735C174.923 204.25 175.211 202.923 175.785 201.757C176.359 200.581 177.17 199.679 178.218 199.05C179.276 198.412 180.479 198.093 181.828 198.093C183.851 198.093 185.442 198.731 186.599 200.007C187.766 201.283 188.349 203.092 188.349 205.434V207.048H178.929C179.057 208.014 179.44 208.789 180.078 209.372C180.725 209.955 181.541 210.247 182.525 210.247C184.047 210.247 185.237 209.696 186.093 208.593L188.035 210.766C187.442 211.605 186.64 212.261 185.629 212.735C184.617 213.2 183.496 213.432 182.265 213.432ZM181.814 201.292C181.03 201.292 180.392 201.556 179.9 202.085C179.417 202.613 179.107 203.37 178.97 204.354H184.466V204.04C184.448 203.165 184.211 202.49 183.755 202.016C183.3 201.533 182.653 201.292 181.814 201.292ZM199.618 202.071C199.08 201.998 198.606 201.962 198.196 201.962C196.701 201.962 195.721 202.468 195.256 203.479V213.159H191.305V198.366H195.038L195.147 200.13C195.94 198.772 197.038 198.093 198.442 198.093C198.879 198.093 199.289 198.152 199.672 198.27L199.618 202.071Z" fill="#26C035"/>
<path d="M162 171.159C162 169.502 163.343 168.159 165 168.159C166.657 168.159 168 169.502 168 171.159C168 172.816 166.657 174.159 165 174.159C163.343 174.159 162 172.816 162 171.159Z" fill="white"/>
<path d="M135 168.159C136.2 167.759 137.5 169.159 138.5 169.659C140 168.659 140.5 168.159 140.5 168.159C140.5 168.159 140 166.659 139.5 166.159C137.5 163.359 133.885 164.274 132.5 165.659C128 170.159 127.5 172.159 127.5 173.659C127.5 175.159 132.5 176.659 131.5 178.159C130.7 179.359 128.667 180.492 128.5 180.659L129.5 181.659C132.833 179.992 141.5 176.159 142.5 175.659C143.86 174.979 143.5 174.159 143.5 173.159C143.5 172.14 143.5 171.659 142 171.659C140.5 171.659 137 174.159 135 174.159C133 174.159 132.5 172.159 132 171.159C131.5 170.159 133.5 168.659 135 168.159Z" fill="#26C035" stroke="#26C035"/>
</svg>
