<svg width="87" height="96" viewBox="0 0 87 96" fill="none" xmlns="http://www.w3.org/2000/svg">
<path d="M3.56836 85.0469L6.125 92.2656L8.66797 85.0469H11.3613V95H9.30371V92.2793L9.50879 87.583L6.82227 95H5.41406L2.73438 87.5898L2.93945 92.2793V95H0.888672V85.0469H3.56836Z" fill="#26C035"/>
<path d="M16.4268 95.1367C15.3421 95.1367 14.458 94.804 13.7744 94.1387C13.0954 93.4733 12.7559 92.5869 12.7559 91.4795V91.2881C12.7559 90.5452 12.8994 89.8822 13.1865 89.2988C13.4736 88.7109 13.8792 88.2598 14.4033 87.9453C14.932 87.6263 15.5335 87.4668 16.208 87.4668C17.2197 87.4668 18.015 87.7858 18.5938 88.4238C19.1771 89.0618 19.4688 89.9665 19.4688 91.1377V91.9443H14.7588C14.8226 92.4274 15.014 92.8148 15.333 93.1064C15.6566 93.3981 16.0645 93.5439 16.5566 93.5439C17.3177 93.5439 17.9124 93.2682 18.3408 92.7168L19.3115 93.8037C19.0153 94.223 18.6143 94.5511 18.1084 94.7881C17.6025 95.0205 17.042 95.1367 16.4268 95.1367ZM16.2012 89.0664C15.8092 89.0664 15.4902 89.1986 15.2441 89.4629C15.0026 89.7272 14.8477 90.1055 14.7793 90.5977H17.5273V90.4404C17.5182 90.0029 17.3997 89.6657 17.1719 89.4287C16.944 89.1872 16.6204 89.0664 16.2012 89.0664Z" fill="#26C035"/>
<path d="M20.2891 91.2471C20.2891 90.0941 20.5465 89.1758 21.0615 88.4922C21.5811 87.8086 22.2897 87.4668 23.1875 87.4668C23.9076 87.4668 24.5023 87.7357 24.9717 88.2734V84.5H26.9541V95H25.1699L25.0742 94.2139C24.582 94.8291 23.9486 95.1367 23.1738 95.1367C22.3034 95.1367 21.6038 94.7949 21.0752 94.1113C20.5511 93.4232 20.2891 92.4684 20.2891 91.2471ZM22.2646 91.3906C22.2646 92.0833 22.3854 92.6143 22.627 92.9834C22.8685 93.3525 23.2194 93.5371 23.6797 93.5371C24.2904 93.5371 24.721 93.2796 24.9717 92.7646V89.8457C24.7256 89.3307 24.2995 89.0732 23.6934 89.0732C22.7409 89.0732 22.2646 89.8457 22.2646 91.3906Z" fill="#26C035"/>
<path d="M30.5703 95H28.5879V87.6035H30.5703V95ZM28.4717 85.6895C28.4717 85.3932 28.5697 85.1494 28.7656 84.958C28.9661 84.7666 29.2373 84.6709 29.5791 84.6709C29.9163 84.6709 30.1852 84.7666 30.3857 84.958C30.5863 85.1494 30.6865 85.3932 30.6865 85.6895C30.6865 85.9902 30.584 86.2363 30.3789 86.4277C30.1784 86.6191 29.9118 86.7148 29.5791 86.7148C29.2464 86.7148 28.9775 86.6191 28.7725 86.4277C28.5719 86.2363 28.4717 85.9902 28.4717 85.6895Z" fill="#26C035"/>
<path d="M35.2803 93.5439C35.6449 93.5439 35.9411 93.4437 36.1689 93.2432C36.3968 93.0426 36.5153 92.776 36.5244 92.4434H38.377C38.3724 92.9447 38.2357 93.4049 37.9668 93.8242C37.6979 94.2389 37.3288 94.5625 36.8594 94.7949C36.3945 95.0228 35.8796 95.1367 35.3145 95.1367C34.2572 95.1367 33.4232 94.8018 32.8125 94.1318C32.2018 93.4574 31.8965 92.5277 31.8965 91.3428V91.2129C31.8965 90.0736 32.1995 89.1644 32.8057 88.4854C33.4118 87.8063 34.2435 87.4668 35.3008 87.4668C36.2259 87.4668 36.9665 87.7311 37.5225 88.2598C38.083 88.7839 38.3678 89.4834 38.377 90.3584H36.5244C36.5153 89.9756 36.3968 89.6657 36.1689 89.4287C35.9411 89.1872 35.6403 89.0664 35.2666 89.0664C34.8063 89.0664 34.4577 89.235 34.2207 89.5723C33.9883 89.9049 33.8721 90.4473 33.8721 91.1992V91.4043C33.8721 92.1654 33.9883 92.7122 34.2207 93.0449C34.4531 93.3776 34.8063 93.5439 35.2803 93.5439Z" fill="#26C035"/>
<path d="M43.791 95C43.6999 94.8223 43.6338 94.6012 43.5928 94.3369C43.1143 94.8701 42.4922 95.1367 41.7266 95.1367C41.002 95.1367 40.4004 94.9271 39.9219 94.5078C39.4479 94.0885 39.2109 93.5599 39.2109 92.9219C39.2109 92.138 39.5003 91.5365 40.0791 91.1172C40.6624 90.6979 41.5033 90.486 42.6016 90.4814H43.5107V90.0576C43.5107 89.7158 43.4219 89.4424 43.2441 89.2373C43.071 89.0322 42.7952 88.9297 42.417 88.9297C42.0843 88.9297 41.8223 89.0094 41.6309 89.1689C41.444 89.3285 41.3506 89.5472 41.3506 89.8252H39.375C39.375 89.3968 39.5072 89.0003 39.7715 88.6357C40.0358 88.2712 40.4095 87.9863 40.8926 87.7812C41.3757 87.5716 41.918 87.4668 42.5195 87.4668C43.431 87.4668 44.1533 87.6969 44.6865 88.1572C45.2243 88.613 45.4932 89.2555 45.4932 90.085V93.291C45.4977 93.9928 45.5957 94.5238 45.7871 94.8838V95H43.791ZM42.1572 93.626C42.4489 93.626 42.7178 93.5622 42.9639 93.4346C43.21 93.3024 43.3923 93.127 43.5107 92.9082V91.6367H42.7725C41.7835 91.6367 41.2572 91.9785 41.1934 92.6621L41.1865 92.7783C41.1865 93.0244 41.2731 93.2272 41.4463 93.3867C41.6195 93.5462 41.8564 93.626 42.1572 93.626Z" fill="#26C035"/>
<path d="M49.0957 95H47.1133V84.5H49.0957V95Z" fill="#26C035"/>
<path d="M61.4277 86.708H58.3789V95H56.3281V86.708H53.3203V85.0469H61.4277V86.708Z" fill="#26C035"/>
<path d="M66.1787 89.4561C65.9098 89.4196 65.6729 89.4014 65.4678 89.4014C64.7204 89.4014 64.2305 89.6543 63.998 90.1602V95H62.0225V87.6035H63.8887L63.9434 88.4854C64.3398 87.8063 64.889 87.4668 65.5908 87.4668C65.8096 87.4668 66.0146 87.4964 66.2061 87.5557L66.1787 89.4561Z" fill="#26C035"/>
<path d="M71.5654 94.248C71.0778 94.8405 70.4033 95.1367 69.542 95.1367C68.749 95.1367 68.1429 94.9089 67.7236 94.4531C67.3089 93.9974 67.097 93.3298 67.0879 92.4502V87.6035H69.0635V92.3818C69.0635 93.152 69.4144 93.5371 70.1162 93.5371C70.7861 93.5371 71.2464 93.3047 71.4971 92.8398V87.6035H73.4795V95H71.6201L71.5654 94.248Z" fill="#26C035"/>
<path d="M78.9756 92.9561C78.9756 92.7145 78.8548 92.5254 78.6133 92.3887C78.3763 92.2474 77.9935 92.1221 77.4648 92.0127C75.7057 91.6436 74.8262 90.8962 74.8262 89.7705C74.8262 89.1143 75.0973 88.5674 75.6396 88.1299C76.1865 87.6878 76.8997 87.4668 77.7793 87.4668C78.7181 87.4668 79.4678 87.6878 80.0283 88.1299C80.5934 88.5719 80.876 89.1462 80.876 89.8525H78.9004C78.9004 89.57 78.8092 89.3376 78.627 89.1553C78.4447 88.9684 78.1598 88.875 77.7725 88.875C77.4398 88.875 77.1823 88.9502 77 89.1006C76.8177 89.251 76.7266 89.4424 76.7266 89.6748C76.7266 89.8936 76.8291 90.0713 77.0342 90.208C77.2438 90.3402 77.5947 90.4564 78.0869 90.5566C78.5791 90.6523 78.9938 90.7617 79.3311 90.8848C80.3747 91.2676 80.8965 91.9307 80.8965 92.874C80.8965 93.5485 80.6071 94.0954 80.0283 94.5146C79.4495 94.9294 78.7021 95.1367 77.7861 95.1367C77.1663 95.1367 76.6149 95.0273 76.1318 94.8086C75.6533 94.5853 75.2773 94.2822 75.0039 93.8994C74.7305 93.512 74.5938 93.0951 74.5938 92.6484H76.4668C76.485 92.9993 76.6149 93.2682 76.8564 93.4551C77.098 93.6419 77.4215 93.7354 77.8271 93.7354C78.2054 93.7354 78.4902 93.6647 78.6816 93.5234C78.8776 93.3776 78.9756 93.1885 78.9756 92.9561Z" fill="#26C035"/>
<path d="M84.54 85.7852V87.6035H85.8047V89.0527H84.54V92.7441C84.54 93.0176 84.5924 93.2135 84.6973 93.332C84.8021 93.4505 85.0026 93.5098 85.2988 93.5098C85.5176 93.5098 85.7113 93.4938 85.8799 93.4619V94.959C85.4925 95.0775 85.0938 95.1367 84.6836 95.1367C83.2982 95.1367 82.5918 94.4372 82.5645 93.0381V89.0527H81.4844V87.6035H82.5645V85.7852H84.54Z" fill="#26C035"/>
<path fill-rule="evenodd" clip-rule="evenodd" d="M0 82V78H86.7836V82H0Z" fill="#26C035"/>
<path d="M20.6087 69.2018C30.7804 77.3692 43.4048 78.5157 49.8251 78.8738H33.3773C28.039 77.7991 15.7176 72.0819 9.1385 57.8104C5.67582 51.1475 1.04447 34.1679 11.0863 19.5526C23.6385 1.28331 37.0564 1.2833 40.5191 1.06837C43.9818 0.853436 59.131 0.208637 72.5489 16.3285C83.2833 29.2245 78.8251 45.3444 75.3624 52.0073C72.549 56.9507 64.0221 67.3104 51.5564 67.4824C48.0214 67.6973 37.6623 66.1928 34.0266 62.7539C30.131 59.673 22.4266 51.9213 20.1758 46.419C20.1758 46.419 22.3833 45.3874 25.1534 46.419C27.9236 47.4507 33.0887 51.2907 35.3251 53.0819C36.84 53.8699 40.7354 55.1453 44.1982 53.9417C42.7554 53.0819 39.8698 50.9326 39.8698 49.2131V45.9892C39.8698 45.5593 42.034 46.634 43.3325 47.0638C44.631 47.4937 47.8773 49.2131 53.2878 49.2131C55.2355 49.2849 59.6937 50.5887 61.9445 55.2312L61.0788 55.876C60.4295 53.2969 54.5863 50.7177 54.3698 50.7177C54.1534 50.7177 50.6907 50.2878 48.5266 50.2878C46.7952 50.2878 43.0443 48.4252 41.3849 47.4937C41.3849 51.4484 47.1562 53.7267 50.0415 54.3715C48.3101 56.9507 42.2505 56.5926 39.4371 56.091C35.1087 54.8874 33.1609 53.5118 31.8625 52.4371L26.4519 48.5683C26.1057 48.0525 23.35 46.992 21.9072 46.8489C33.8101 65.7629 51.34 67.6973 60.4295 62.5389C69.5191 57.3806 72.7654 49.643 73.8475 47.9235C74.9295 46.2041 81.4221 27.9349 65.4072 13.3194C52.3667 1.41821 32.9897 2.22744 20.6087 13.1046C9.35488 22.9914 8.05646 36.1022 8.27287 42.7651C8.50327 49.8579 11.6765 62.0295 20.6087 69.2018Z" fill="#26C035"/>
<path d="M36.8402 41.9055V32.8784H28.3999V26.4304H37.4895V16.9734H45.0641V26.4304H53.7208V32.8784H44.6312V41.9055H36.8402Z" fill="#26C035"/>
<path d="M85.5341 73.7153L84.452 74.79C84.8849 75.2198 85.7073 76.2085 85.5341 76.7244C85.361 77.2402 85.1736 77.3692 85.1013 77.3692H83.8028C83.2834 77.3692 83.1535 75.7929 83.1535 75.0049L82.9371 74.79H82.5043V76.5094C82.5043 76.7244 82.0714 77.3692 81.855 77.3692H78.8252C78.652 77.1972 77.8872 75.5779 77.5267 74.79H77.3103C77.3103 75.1481 77.267 75.9936 77.0938 76.5094C76.9207 77.0253 76.3004 77.2974 76.0117 77.3692H73.4147V74.3601C73.4147 73.9303 72.7655 71.566 71.2505 71.566C70.0386 71.566 69.3028 72.8556 69.0864 73.5004V75.6497C69.0864 76.1655 69.6633 76.4377 69.952 76.5094L71.6834 76.7244V76.9393V77.3692H65.1908C64.6714 77.0253 64.2529 75.6497 64.1088 75.0049V68.342L63.2431 66.6226L61.9446 68.342L63.2431 69.8465V76.5094L64.758 78.6588H86.1834V76.0796L85.5341 73.7153Z" fill="#26C035"/>
<path d="M71.0341 67.0525L69.7356 68.3421L71.0341 69.4167L72.1162 68.3421L71.0341 67.0525Z" fill="#26C035"/>
<path d="M79.9072 71.1361L80.9893 69.6316L82.2878 70.4913L81.2057 71.9958L79.9072 71.1361Z" fill="#26C035"/>
<path d="M85.1014 69.6317L83.5865 68.772H83.3701L82.5044 70.0616L84.2357 71.1362L85.1014 69.6317Z" fill="#26C035"/>
<path d="M80.1238 68.1272L81.8551 68.772H82.0715L82.7208 67.6974L81.2059 66.8376L80.1238 68.1272Z" fill="#26C035"/>
<path fill-rule="evenodd" clip-rule="evenodd" d="M72.1647 16.6485C58.8944 0.70591 43.9417 1.35696 40.5501 1.56748C40.4135 1.57596 40.2619 1.58409 40.0961 1.593C38.157 1.69708 34.2617 1.90616 29.4093 3.99927C24.1447 6.27024 17.7245 10.774 11.4984 19.8358C1.60509 34.235 6.16177 50.9983 9.58219 57.5799L9.58765 57.5904L9.5926 57.6012C16.0738 71.6603 28.1915 77.3001 33.4276 78.3739H40.7482C34.4525 77.251 26.8725 74.8727 20.2957 69.5918C11.2073 62.2941 8.00619 49.9552 7.77317 42.7814C7.55454 36.0506 8.86308 22.758 20.2788 12.729C32.8385 1.69484 52.5033 0.865988 65.7442 12.9502C73.8657 20.362 76.2908 28.7176 76.5384 35.4391C76.662 38.7951 76.2432 41.7415 75.7242 43.9605C75.2097 46.1599 74.5859 47.689 74.2707 48.1899C74.1343 48.4065 73.9593 48.7292 73.7373 49.1381C72.2585 51.8631 68.7 58.4204 60.6764 62.9739C51.3091 68.2898 33.4999 66.2088 21.4841 47.1153L21.1752 46.6244C21.0528 46.6526 20.9429 46.6819 20.8466 46.7102C22.02 49.2833 24.3292 52.3364 26.857 55.1611C29.5357 58.1543 32.415 60.842 34.3367 62.3618L34.3541 62.3755L34.3702 62.3907C35.214 63.1888 36.4778 63.8993 37.9897 64.5102C39.4949 65.1184 41.2134 65.6149 42.9384 66.0004C46.3989 66.7738 49.8223 67.087 51.5261 66.9834L51.5378 66.9827L51.5495 66.9825C57.64 66.8985 62.7839 64.3261 66.7669 61.1436C70.7479 57.9626 73.5418 54.1929 74.9232 51.7683C78.3489 45.1701 82.702 29.3078 72.1647 16.6485ZM20.1758 46.4191C19.9641 45.9661 19.9643 45.966 19.9646 45.9659L19.9688 45.964L19.9768 45.9603L20.0024 45.949C20.0237 45.9398 20.0534 45.9273 20.0911 45.9123C20.1665 45.8822 20.2742 45.8421 20.4108 45.7981C20.6837 45.7102 21.0738 45.6064 21.5548 45.5373C22.517 45.3991 23.8486 45.3996 25.328 45.9505C26.777 46.4902 28.8062 47.7412 30.722 49.0532C32.6287 50.359 34.4685 51.757 35.5985 52.6604C36.3183 53.0278 37.5999 53.5124 39.1137 53.7655C40.332 53.9693 41.678 54.0193 42.9911 53.7535C42.397 53.3383 41.737 52.8233 41.148 52.2617C40.6804 51.8159 40.2445 51.3285 39.9225 50.8266C39.6039 50.3301 39.3699 49.7779 39.3699 49.2132V45.9892C39.3699 45.8477 39.4193 45.6897 39.5469 45.5663C39.6609 45.4561 39.7927 45.4171 39.8783 45.402C40.04 45.3734 40.2093 45.4004 40.3314 45.4261C40.5975 45.4821 40.9418 45.6031 41.2927 45.7371C41.5682 45.8423 41.8541 45.9578 42.1375 46.0723C42.6166 46.2658 43.0884 46.4564 43.4897 46.5892C43.7213 46.6659 44.0045 46.7782 44.3412 46.9116C45.98 47.5612 48.8865 48.7132 53.2878 48.7132H53.297L53.3062 48.7136C55.3822 48.7901 60.0409 50.1588 62.3944 55.0132L62.5748 55.3853L60.7768 56.7245L60.594 55.9982C60.4666 55.4924 60.0633 54.9284 59.4445 54.3462C58.8358 53.7735 58.0686 53.2294 57.2997 52.7554C56.5329 52.2827 55.7778 51.888 55.202 51.6119C54.9141 51.4739 54.6737 51.3668 54.5017 51.2953C54.4151 51.2593 54.3497 51.2339 54.3061 51.2184C54.3021 51.217 54.2984 51.2157 54.2951 51.2145C54.2377 51.2106 54.1661 51.2037 54.0965 51.1969C53.9844 51.1859 53.8364 51.1705 53.6616 51.1524L53.6184 51.1479C53.2296 51.1076 52.7113 51.0541 52.1326 51.0007C50.9708 50.8933 49.5838 50.7879 48.5266 50.7879C48.0191 50.7879 47.4036 50.6542 46.7679 50.4606C46.1238 50.2644 45.4228 49.9951 44.7322 49.6999C43.7561 49.2826 42.7863 48.8072 42.0041 48.3973C42.356 49.7139 43.4571 50.8366 44.8991 51.7517C46.6412 52.8573 48.7475 53.5701 50.1506 53.8836L50.8642 54.0431L50.4567 54.6503C49.9451 55.4123 49.1371 55.9247 48.2256 56.267C47.3117 56.6102 46.2542 56.7977 45.1858 56.885C43.0493 57.0595 40.7866 56.8395 39.3494 56.5833L39.326 56.5791L39.3032 56.5728C34.9189 55.3536 32.9074 53.9493 31.5574 52.8337L26.0874 48.9224L26.0378 48.8485C26.0385 48.8495 26.0388 48.8501 26.0387 48.8501C26.0382 48.8506 26.0115 48.8197 25.9279 48.7607C25.8401 48.6986 25.7186 48.6255 25.565 48.5443C25.2588 48.3824 24.8566 48.2052 24.4129 48.0362C23.9372 47.8551 23.432 47.6904 22.9644 47.5659C34.7311 65.3786 51.5276 67.016 60.1828 62.1042C67.927 57.7093 71.3445 51.4372 72.8503 48.6735C73.0851 48.2427 73.2733 47.8972 73.4243 47.6573C73.6501 47.2985 74.2437 45.8991 74.7504 43.7327C75.2526 41.5859 75.6589 38.7292 75.5391 35.476C75.2997 28.9792 72.9636 20.8925 65.0701 13.6888C52.2301 1.97058 33.141 2.76017 20.9388 13.4803C9.84674 23.225 8.55843 36.154 8.77264 42.749C9.00041 49.7609 12.1458 61.7651 20.9218 68.812C30.9614 76.8734 43.444 78.0172 49.8529 78.3746L49.8251 79.3739H33.3275L33.2787 79.364C27.813 78.2637 15.3476 72.4631 8.6894 58.0305C5.18503 51.279 0.489216 34.0933 10.6742 19.2695C17.0004 10.062 23.5652 5.43114 29.0133 3.08106C34.0325 0.915926 38.0793 0.69943 40.0358 0.594757C40.2019 0.585873 40.3529 0.577795 40.4881 0.569399C44.0219 0.350058 59.3678 -0.288488 72.9333 16.0087C83.86 29.1359 79.305 45.5052 75.8061 52.2379L75.8017 52.2464L75.797 52.2547C74.3633 54.7737 71.4888 58.6507 67.3911 61.9248C63.2934 65.199 57.945 67.8912 51.5749 67.9822C49.7404 68.0914 46.2244 67.7595 42.7202 66.9763C40.9591 66.5827 39.1852 66.0718 37.615 65.4374C36.0603 64.8092 34.6726 64.0471 33.6994 63.1326C31.7258 61.5694 28.8142 58.8477 26.1118 55.828C23.4101 52.809 20.8725 49.4427 19.7131 46.6084L19.5328 46.1677L19.9646 45.9659L20.1758 46.4191ZM54.2694 51.2061C54.2701 51.2063 54.271 51.2066 54.2724 51.207C54.2624 51.2047 54.2604 51.2035 54.2694 51.2061ZM22.6396 46.4606C23.3135 46.6011 24.0867 46.842 24.7687 47.1017C25.2375 47.2802 25.6794 47.4737 26.0323 47.6602C26.2083 47.7533 26.3702 47.8487 26.505 47.944C26.6033 48.0134 26.7126 48.1001 26.8012 48.2035L32.1677 52.0408L32.1813 52.052C33.4258 53.082 35.3067 54.4205 39.5481 55.6029C40.9255 55.8465 43.0863 56.0532 45.1044 55.8883C46.119 55.8054 47.0769 55.6302 47.874 55.3308C48.3648 55.1465 48.7799 54.9208 49.1092 54.652C47.6978 54.2584 45.9081 53.5764 44.3633 52.5961C42.5179 51.4249 40.8849 49.736 40.8849 47.4938V46.6519C40.6868 46.5769 40.5137 46.5156 40.3699 46.4707V49.2132C40.3699 49.5082 40.4965 49.8695 40.7641 50.2865C41.0282 50.6981 41.4039 51.1241 41.838 51.538C42.7064 52.3659 43.7564 53.0964 44.4542 53.5122L45.3762 54.0616L44.3624 54.414C42.5269 55.052 40.5968 55.0274 38.9487 54.7518C37.3008 54.4763 35.8982 53.9437 35.0944 53.5256L35.0508 53.5029L35.0125 53.4722C33.9025 52.5831 32.0622 51.183 30.1569 49.8782C28.2385 48.5645 26.3001 47.3797 24.979 46.8877C24.1218 46.5684 23.3234 46.4614 22.6396 46.4606ZM40.9523 46.6776L41.6296 47.0578C42.447 47.5166 43.7833 48.2067 45.1253 48.7804C45.7963 49.0672 46.4614 49.3219 47.0593 49.504C47.6658 49.6887 48.1684 49.7879 48.5266 49.7879C49.6335 49.7879 51.06 49.8973 52.2246 50.0049C52.8092 50.0589 53.3324 50.1129 53.7214 50.1532L53.7693 50.1582C53.9429 50.1762 54.0862 50.191 54.1943 50.2017C54.2901 50.2111 54.3407 50.2152 54.3603 50.2169C54.3682 50.2175 54.371 50.2177 54.3699 50.2177C54.456 50.2177 54.532 50.2411 54.5432 50.2443C54.5751 50.2534 54.6089 50.2647 54.6414 50.2763C54.7075 50.2998 54.7904 50.3323 54.8856 50.3719C55.0771 50.4515 55.3338 50.5661 55.6343 50.7102C56.2352 50.9983 57.0221 51.4095 57.8244 51.9041C58.6244 52.3973 59.4534 52.9816 60.1297 53.6179C60.602 54.0622 61.0262 54.5562 61.3034 55.0854L61.3079 55.0821C59.112 50.9567 55.0512 49.782 53.2782 49.7132C48.6664 49.7115 45.5637 48.476 43.9493 47.8332C43.635 47.708 43.3771 47.6053 43.1754 47.5386C42.7484 47.3972 42.2148 47.182 41.7111 46.9789C41.4428 46.8707 41.183 46.7659 40.9523 46.6776Z" fill="#26C035"/>
<path fill-rule="evenodd" clip-rule="evenodd" d="M36.9895 16.4734H45.5641V25.9304H54.2208V33.3784H45.1312V42.4055H36.3402V33.3784H27.8999V25.9304H36.9895V16.4734ZM37.9895 17.4734V26.9304H28.8999V32.3784H37.3402V41.4055H44.1312V32.3784H53.2208V26.9304H44.5641V17.4734H37.9895Z" fill="#26C035"/>
<path fill-rule="evenodd" clip-rule="evenodd" d="M63.3284 65.6802L64.6088 68.2234V74.9487C64.6795 75.252 64.8076 75.7012 64.9732 76.1139C65.0609 76.3325 65.1546 76.5293 65.2496 76.6848C65.2994 76.7662 65.3435 76.8263 65.3802 76.8693H69.4808C69.3555 76.8112 69.2244 76.7354 69.1024 76.6397C68.8523 76.4435 68.5864 76.1163 68.5864 75.6499V73.4189L68.6124 73.3415C68.7383 72.9665 69.0073 72.4198 69.4235 71.9572C69.8408 71.4932 70.4524 71.0662 71.2506 71.0662C72.2975 71.0662 72.9672 71.8796 73.3397 72.5626C73.5353 72.9212 73.6761 73.2903 73.7686 73.5988C73.8564 73.8917 73.9148 74.1773 73.9148 74.3603V76.8693H75.9433C76.042 76.8385 76.1852 76.7788 76.3193 76.6896C76.4823 76.5813 76.582 76.4632 76.6199 76.3505C76.7651 75.9177 76.8103 75.143 76.8103 74.7902V74.2902H77.8478L77.9814 74.5821C78.1604 74.9734 78.4397 75.5708 78.695 76.0902C78.8229 76.3504 78.9427 76.587 79.0399 76.767C79.0601 76.8044 79.0789 76.8385 79.0962 76.8693H81.7385C81.7715 76.8358 81.8121 76.7877 81.8549 76.7281C81.9082 76.654 81.9537 76.5779 81.9834 76.5165C81.9932 76.4962 82 76.4804 82.0043 76.4691V74.2902H83.1433L83.6536 74.797V75.0051C83.6536 75.3807 83.6851 75.9365 83.7739 76.3857C83.8182 76.6098 83.8703 76.7728 83.9202 76.8693H84.929C84.9625 76.8126 85.0082 76.7189 85.0578 76.5726C85.0576 76.5683 85.0603 76.5263 85.0265 76.4287C84.9854 76.3099 84.9087 76.1627 84.8014 75.9981C84.5877 75.67 84.2988 75.3426 84.0998 75.1449L83.7425 74.7902L85.7895 72.7572L86.6834 76.0124V79.1589H64.4988L62.7431 76.6681V70.0327L61.3022 68.3632L63.3284 65.6802ZM83.9559 76.9267C83.9559 76.927 83.954 76.925 83.9502 76.9199C83.9541 76.9238 83.956 76.9263 83.9559 76.9267ZM62.587 68.3212L63.6088 69.5052V68.461L63.1579 67.5653L62.587 68.3212ZM63.7431 75.5926V76.3511L65.0174 78.1589H85.6834V77.5362C85.679 77.5419 85.6745 77.5475 85.6701 77.5531C85.607 77.6317 85.5344 77.7029 85.4511 77.7581C85.3762 77.8077 85.2544 77.8693 85.1013 77.8693H83.8028C83.3827 77.8693 83.1484 77.5477 83.0409 77.3457C82.9772 77.2261 82.9258 77.0913 82.8838 76.9516C82.8836 76.952 82.8834 76.9524 82.8832 76.9528C82.8251 77.0727 82.7487 77.1981 82.6668 77.312C82.5859 77.4244 82.4881 77.5418 82.382 77.6372C82.3291 77.6847 82.2636 77.7364 82.1876 77.7785C82.1167 77.8178 82.0002 77.8693 81.8551 77.8693H78.6191L78.4729 77.7241C78.4031 77.6548 78.3441 77.5612 78.3083 77.5029C78.2633 77.4295 78.2129 77.3401 78.16 77.2422C78.0539 77.0456 77.9275 76.7959 77.7975 76.5313C77.7559 76.4466 77.7137 76.36 77.6714 76.2726C77.6428 76.4129 77.6086 76.5473 77.5679 76.6687C77.4326 77.0718 77.1357 77.3477 76.873 77.5224C76.6077 77.6988 76.3265 77.8063 76.1324 77.8546L76.073 77.8693H72.9148V74.3603C72.9148 74.3616 72.9146 74.3494 72.911 74.3202C72.9076 74.2928 72.9019 74.2569 72.8932 74.2129C72.876 74.1249 72.8488 74.0132 72.8107 73.8859C72.7341 73.6303 72.618 73.3277 72.4618 73.0415C72.131 72.4349 71.7187 72.0662 71.2506 72.0662C70.8369 72.0662 70.4746 72.2839 70.1669 72.626C69.8847 72.9398 69.6874 73.318 69.5864 73.5867V75.6499C69.5864 75.6993 69.609 75.7661 69.7196 75.8529C69.8233 75.9342 69.9558 75.9911 70.0478 76.0177L72.1834 76.2828V77.8693H65.0404L64.9149 77.7863C64.6947 77.6405 64.5251 77.4169 64.3963 77.2063C64.2623 76.9869 64.1449 76.7351 64.0451 76.4863C63.9239 76.1843 63.8218 75.8698 63.7431 75.5926ZM85.4001 75.1152L85.2788 74.6738L85.1471 74.8046C85.2306 74.9013 85.3163 75.0059 85.4001 75.1152Z" fill="#26C035"/>
<path fill-rule="evenodd" clip-rule="evenodd" d="M71.0677 66.3147L72.7948 68.373L71.0648 70.0912L68.9922 68.3759L71.0677 66.3147ZM70.4792 68.3085L71.0036 68.7426L71.4377 68.3114L71.0007 67.7906L70.4792 68.3085Z" fill="#26C035"/>
<path fill-rule="evenodd" clip-rule="evenodd" d="M80.8642 68.9492L82.9971 70.3614L81.3307 72.6784L79.1978 71.2662L80.8642 68.9492ZM81.1143 70.3141L80.6165 71.0062L81.0806 71.3135L81.5784 70.6214L81.1143 70.3141Z" fill="#26C035"/>
<path fill-rule="evenodd" clip-rule="evenodd" d="M83.1036 68.272H83.7186L85.7857 69.4451L84.4114 71.8337L81.8005 70.2131L83.1036 68.272ZM83.5865 69.3468L83.2084 69.91L84.0603 70.4388L84.4173 69.8183L83.5865 69.3468Z" fill="#26C035"/>
<path fill-rule="evenodd" clip-rule="evenodd" d="M81.0905 66.1973L83.4145 67.5161L82.3537 69.272H81.7651L79.2854 68.3485L81.0905 66.1973ZM81.3213 67.478L80.9622 67.9059L81.8181 68.2247L82.0272 67.8786L81.3213 67.478Z" fill="#26C035"/>
<path d="M69.7356 74.1453C69.7356 73.433 70.3169 72.8557 71.0341 72.8557C71.7513 72.8557 72.3326 73.433 72.3326 74.1453C72.3326 74.8576 71.7513 75.4349 71.0341 75.4349C70.3169 75.4349 69.7356 74.8576 69.7356 74.1453Z" fill="white"/>
<path d="M58.049 72.8556C58.5684 72.6837 59.1311 73.2855 59.5639 73.5004C60.2132 73.0705 60.4296 72.8556 60.4296 72.8556C60.4296 72.8556 60.2132 72.2108 59.9968 71.9959C59.1311 70.7923 57.5664 71.1856 56.9669 71.7809C55.0192 73.7153 54.8027 74.5751 54.8027 75.2199C54.8027 75.8647 56.9669 76.5095 56.5341 77.1543C56.1878 77.6701 55.3079 78.1571 55.2356 78.2289L55.6684 78.6588C57.111 77.9422 60.8624 76.2945 61.2953 76.0796C61.8839 75.7873 61.7281 75.4348 61.7281 75.0049C61.7281 74.5669 61.7281 74.3601 61.0789 74.3601C60.4296 74.3601 58.9147 75.4348 58.049 75.4348C57.1833 75.4348 56.9669 74.5751 56.7505 74.1452C56.5341 73.7153 57.3997 73.0705 58.049 72.8556Z" fill="#26C035"/>
<path fill-rule="evenodd" clip-rule="evenodd" d="M60.3814 71.6748C59.8359 70.9373 59.0663 70.6868 58.3626 70.7141C57.6747 70.7409 57.0111 71.0323 56.6146 71.4262C54.6369 73.3903 54.3027 74.3723 54.3027 75.2198C54.3027 75.4434 54.3963 75.6256 54.4898 75.7548C54.5838 75.8846 54.7031 75.9964 54.8166 76.0897C55.0002 76.2406 55.2306 76.3914 55.432 76.5233C55.4744 76.5511 55.5156 76.578 55.5547 76.6039C55.7842 76.7559 55.9481 76.8746 56.0444 76.9727C55.9131 77.1261 55.7107 77.294 55.4908 77.4517C55.3642 77.5424 55.2444 77.6211 55.1476 77.6841C55.1389 77.6897 55.1303 77.6953 55.1218 77.7009C55.0844 77.7252 55.0484 77.7486 55.0197 77.7678C55.0186 77.7685 55.0173 77.7694 55.0157 77.7705C54.9938 77.7851 54.9307 77.827 54.8832 77.8741L54.526 78.2289L55.5701 79.2658L55.8908 79.1066C56.602 78.7533 57.8912 78.1664 59.066 77.6369C59.3991 77.4867 59.7242 77.3407 60.0239 77.2061C60.7682 76.8717 61.3554 76.608 61.5176 76.5274C61.7068 76.4335 61.8692 76.3186 61.9935 76.1711C62.1225 76.0181 62.1915 75.8526 62.2233 75.6891C62.2529 75.5363 62.2483 75.3915 62.2425 75.2855C62.2402 75.2441 62.2378 75.2091 62.2357 75.1774C62.2315 75.1142 62.2281 75.0645 62.2281 75.0049C62.2281 75 62.2281 74.9951 62.2281 74.99C62.2281 74.8926 62.2282 74.7699 62.2141 74.6572C62.1986 74.534 62.1609 74.3677 62.0446 74.2151C61.8028 73.898 61.4021 73.8601 61.0789 73.8601C60.8091 73.8601 60.512 73.964 60.2643 74.0651C60.0389 74.1571 59.7905 74.275 59.5504 74.389C59.5104 74.408 59.4707 74.4268 59.4313 74.4454C59.1467 74.58 58.8742 74.7054 58.6237 74.7976C58.3658 74.8924 58.1757 74.9348 58.049 74.9348C57.8227 74.9348 57.6893 74.8395 57.565 74.6631C57.4969 74.5666 57.4377 74.4518 57.378 74.3208C57.3614 74.2844 57.3421 74.2403 57.3216 74.1934C57.2926 74.1271 57.2611 74.0551 57.2314 73.9914C57.2589 73.9457 57.3141 73.8768 57.4083 73.7926C57.6268 73.5973 57.9453 73.4166 58.2061 73.3303C58.2397 73.3191 58.3358 73.3141 58.5817 73.4616C58.6781 73.5195 58.7726 73.5849 58.8792 73.6586C58.897 73.671 58.9152 73.6836 58.9338 73.6964C59.0527 73.7784 59.1968 73.8763 59.3416 73.9482L59.5997 74.0764L59.84 73.9173C60.1751 73.6954 60.4034 73.5257 60.5513 73.4083C60.6252 73.3495 60.6792 73.3037 60.7165 73.2707C60.7352 73.2543 60.7497 73.241 60.7605 73.2309L60.7738 73.2183L60.7785 73.2137L60.7804 73.2119L60.7812 73.2111C60.7813 73.211 60.7819 73.2104 60.4296 72.8556L60.7819 73.2104L61.0025 72.9913L60.9036 72.6965L60.4296 72.8556C60.9036 72.6965 60.9036 72.6965 60.9036 72.6965L60.9032 72.6953L60.9025 72.6931L60.9001 72.6861L60.8916 72.6618C60.8844 72.6413 60.8741 72.6125 60.8612 72.5776C60.8354 72.5081 60.7983 72.4123 60.7534 72.3082C60.7089 72.2051 60.6541 72.0876 60.5921 71.9768C60.5401 71.8839 60.4698 71.7712 60.3814 71.6748ZM59.8333 72.6998C59.7585 72.7566 59.6648 72.8253 59.5493 72.9059C59.534 72.8955 59.5181 72.8846 59.5015 72.8732C59.4857 72.8623 59.4693 72.8509 59.4524 72.8392C59.3475 72.7665 59.2229 72.6802 59.0962 72.6042C58.8227 72.44 58.3777 72.2201 57.8919 72.3809C57.5034 72.5095 57.0645 72.7587 56.7419 73.047C56.5815 73.1904 56.422 73.368 56.3218 73.5726C56.2191 73.7821 56.1558 74.0758 56.3039 74.37C56.3326 74.427 56.3563 74.4818 56.3864 74.5511C56.4086 74.6023 56.4343 74.6614 56.4679 74.7353C56.5367 74.8863 56.6263 75.0671 56.7476 75.2392C57.002 75.6002 57.4096 75.9348 58.049 75.9348C58.3552 75.9348 58.679 75.8428 58.9689 75.7361C59.2662 75.6268 59.5753 75.4835 59.8588 75.3494C59.901 75.3295 59.9425 75.3098 59.9834 75.2904C60.2256 75.1755 60.4448 75.0715 60.6422 74.991C60.8883 74.8905 61.0239 74.8601 61.0789 74.8601C61.1418 74.8601 61.1902 74.8625 61.227 74.8658C61.2281 74.9052 61.2281 74.9491 61.2281 75.0049C61.2281 75.1001 61.235 75.2025 61.24 75.2779C61.2416 75.3019 61.2431 75.3232 61.244 75.3406C61.249 75.4307 61.2466 75.4729 61.2416 75.4985C61.2387 75.5135 61.2363 75.5178 61.229 75.5265C61.217 75.5407 61.1781 75.5795 61.0729 75.6317C60.9291 75.7032 60.3809 75.9494 59.6582 76.274C59.3497 76.4126 59.0093 76.5655 58.6551 76.7252C58.0667 76.9904 57.4434 77.2728 56.8761 77.5342C56.9018 77.5009 56.9262 77.4671 56.9492 77.4329C57.0766 77.2432 57.1205 77.0237 57.0723 76.8049C57.0289 76.6082 56.9203 76.4524 56.8213 76.3401C56.6284 76.1211 56.3415 75.9256 56.1067 75.7701C56.0568 75.7371 56.0083 75.7053 55.9613 75.6744C55.7617 75.5435 55.5892 75.4303 55.4516 75.3172C55.3728 75.2524 55.3269 75.2044 55.3032 75.1729C55.3117 74.7253 55.4678 73.9744 57.3192 72.1357C57.5222 71.9342 57.9407 71.7313 58.4014 71.7134C58.8372 71.6965 59.2718 71.8442 59.5908 72.2878L59.615 72.3214L59.6444 72.3506C59.6443 72.3505 59.6444 72.3506 59.6444 72.3506C59.6454 72.3517 59.6534 72.3604 59.6673 72.3804C59.6822 72.4018 59.6998 72.43 59.7193 72.465C59.7581 72.5342 59.7971 72.6164 59.8333 72.6998ZM55.2903 75.1537C55.2903 75.1537 55.2906 75.1541 55.2911 75.1551L55.2903 75.1537Z" fill="#26C035"/>
</svg>
